<svg xmlns="http://www.w3.org/2000/svg" xmlns:xlink="http://www.w3.org/1999/xlink" xml:space="preserve" viewBox="0 0 1024 1024"><defs><linearGradient id="j" x1="988" x2="988" y1="1494.961" y2="379" gradientTransform="translate(-47.223 -47.223)" gradientUnits="userSpaceOnUse"><stop offset="0" stop-color="#474747"/><stop offset="1" stop-color="#f0f0f0"/></linearGradient><linearGradient id="l" x1="0" x2="1033.882" y1="1092.711" y2="1092.711" gradientUnits="userSpaceOnUse"><stop offset="0"/><stop offset=".02" stop-color="#292929"/><stop offset=".026" stop-color="#afafaf"/><stop offset=".029" stop-color="#605f60"/><stop offset=".068" stop-color="#4c4c4c"/><stop offset=".344" stop-color="#505050"/><stop offset=".466" stop-color="#717171"/><stop offset=".587" stop-color="#a7a7a7"/><stop offset=".757" stop-color="#d8d8d8"/><stop offset=".866" stop-color="#c7c7c7"/><stop offset=".97" stop-color="#9e9e9e"/><stop offset=".978" stop-color="#272827"/><stop offset=".988" stop-color="#1d1d1d"/><stop offset="1" stop-color="#050707"/></linearGradient><linearGradient id="m" x1="0" x2="0" y1="1088.743" y2="1092.743" gradientTransform="matrix(1 0 0 1.125 0 -136.589)" gradientUnits="userSpaceOnUse" spreadMethod="reflect"><stop offset="0" stop-color="#171717" stop-opacity="0"/><stop offset=".217" stop-color="#131313"/><stop offset=".311" stop-color="#0c0c0c"/><stop offset=".332" stop-color="#1c1c1c"/><stop offset="1" stop-color="#525252"/></linearGradient><linearGradient xlink:href="#a" id="n" x2="40.426" y1="1092.711" y2="1092.711" gradientTransform="translate(-1033.882)" gradientUnits="userSpaceOnUse"/><linearGradient id="a"><stop offset="0"/><stop offset="1" stop-color="#fff"/></linearGradient><linearGradient xlink:href="#a" id="p" x2="40.426" y1="1092.711" y2="1092.711" gradientUnits="userSpaceOnUse"/><linearGradient id="r" x1="8.671" x2="19.002" y1="1987.134" y2="1987.134" gradientTransform="scale(1.82326 .54847)" gradientUnits="userSpaceOnUse"><stop offset="0"/><stop offset="1" stop-color="#fff"/></linearGradient><linearGradient id="t" x1="132.845" x2="132.845" y1="1098.592" y2="1156.706" gradientUnits="userSpaceOnUse"><stop offset="0" stop-color="#161616"/><stop offset=".046" stop-color="#3a3a3a"/><stop offset=".229" stop-color="#1a1a1a"/><stop offset=".955" stop-color="#040404"/><stop offset="1" stop-opacity="0"/></linearGradient><linearGradient xlink:href="#c" id="w" x1="57.388" x2="101.215" y1="1124.066" y2="1098.592" gradientTransform="translate(67.76)" gradientUnits="userSpaceOnUse"/><linearGradient id="c"><stop offset="0" stop-color="#fff" stop-opacity="0"/><stop offset="1" stop-color="#fff"/></linearGradient><linearGradient xlink:href="#c" id="y" x1="59.484" x2="98.215" y1="1122.569" y2="1106.706" gradientTransform="translate(61.76)" gradientUnits="userSpaceOnUse"/><linearGradient xlink:href="#c" id="z" x1="59.484" x2="98.215" y1="1122.569" y2="1106.706" gradientTransform="translate(8.5)" gradientUnits="userSpaceOnUse"/><linearGradient id="B" x1="44.447" x2="52.239" y1="2456.276" y2="2456.276" gradientTransform="scale(2.20746 .45301)" gradientUnits="userSpaceOnUse"><stop offset="0" stop-color="#fff" stop-opacity="0"/><stop offset="1" stop-color="#fff"/></linearGradient><linearGradient xlink:href="#c" id="A" x1="57.388" x2="101.215" y1="1124.066" y2="1098.592" gradientTransform="translate(2.5)" gradientUnits="userSpaceOnUse"/><linearGradient id="E" x1="189.557" x2="216.743" y1="5093.72" y2="5093.72" gradientTransform="scale(4.6739 .21395)" gradientUnits="userSpaceOnUse"><stop offset="0" stop-color="#fff" stop-opacity="0"/><stop offset="1" stop-color="#fff"/></linearGradient><linearGradient id="D" x1="21.486" x2="32.562" y1="1092.594" y2="1092.594" gradientTransform="translate(81.488 23.389)" gradientUnits="userSpaceOnUse"><stop offset="0" stop-color="#fcfcff" stop-opacity="0"/><stop offset="1" stop-color="#fcfcff"/></linearGradient><linearGradient xlink:href="#d" id="F" x1="-38" x2="-38" y1="1022" y2="1030" gradientTransform="translate(0 -2)" gradientUnits="userSpaceOnUse"/><linearGradient id="d"><stop offset="0"/><stop offset=".733" stop-opacity=".689"/><stop offset="1" stop-opacity="0"/></linearGradient><linearGradient xlink:href="#d" id="G" x1="-38" x2="-38" y1="1022" y2="1030" gradientTransform="translate(4.941 -2187.423)" gradientUnits="userSpaceOnUse"/><linearGradient xlink:href="#e" id="I" x1="-155.1" x2="-147.852" y1="1294.383" y2="1294.383" gradientTransform="scale(1.18788 .84184)" gradientUnits="userSpaceOnUse"><stop offset="0"/><stop offset=".4" stop-opacity=".689"/><stop offset="1" stop-opacity="0"/></linearGradient><linearGradient xlink:href="#e" id="H" x1="171.812" x2="188.095" y1="1092.711" y2="1092.711" gradientTransform="matrix(.52874 0 0 1 892.174 0)" gradientUnits="userSpaceOnUse"/><linearGradient id="e"><stop offset="0"/><stop offset="1" stop-opacity="0"/></linearGradient><filter id="g" width="1.061" height="1.061" x="-.031" y="-.031" color-interpolation-filters="sRGB"><feGaussianBlur stdDeviation="16.289"/></filter><filter id="o" width="1.067" height="1.303" x="-.034" y="-.151" color-interpolation-filters="sRGB"><feGaussianBlur stdDeviation=".568"/></filter><filter id="q" width="1.033" height="1.148" x="-.017" y="-.074" color-interpolation-filters="sRGB"><feGaussianBlur stdDeviation=".278"/></filter><filter id="s" width="1.284" height="3.777" x="-.142" y="-1.389" color-interpolation-filters="sRGB"><feGaussianBlur stdDeviation=".868"/></filter><filter id="b" width="1.03" height="1.033" x="-.015" y="-.016" color-interpolation-filters="sRGB"><feGaussianBlur stdDeviation=".398"/></filter><filter id="x" width="2.911" height="1.038" x="-.955" y="-.019" color-interpolation-filters="sRGB"><feGaussianBlur stdDeviation=".398"/></filter><filter id="u" width="1.197" height="4.369" x="-.099" y="-1.685" color-interpolation-filters="sRGB"><feGaussianBlur stdDeviation="2.186"/></filter><filter id="C" width="1.172" height="3.53" x="-.086" y="-1.265" color-interpolation-filters="sRGB"><feGaussianBlur stdDeviation=".527"/></filter><filter id="i" width="1.492" height="4.701" x="-.246" y="-1.851" color-interpolation-filters="sRGB"><feGaussianBlur stdDeviation="92.629"/></filter><filter id="h" width="1.492" height="4.701" x="-.246" y="-1.851" color-interpolation-filters="sRGB"><feGaussianBlur stdDeviation="92.629"/></filter><clipPath id="f"><path d="M431.262 1177.483V604.529c0-155.398 94.592-270.267 270.296-270.26l572.919-.007c175.67.006 270.26 114.87 270.26 270.268v572.954c0 155.401-94.59 270.254-270.26 270.26H701.558c-175.704 0-270.296-114.859-270.296-270.26z"></path></clipPath><clipPath id="J"><rect width="807.387" height="121.661" x="179.935" y="1028.921" rx="14"/></clipPath><clipPath id="k"><rect width="1033.882" height="137.423" y="1024" rx="2"/></clipPath><mask id="v" maskUnits="userSpaceOnUse"><path fill="#fff" stroke-miterlimit="32" stroke-width="8" d="M101.215 1098.592h63.26v58.114h-5v-50h-53.26v50h-5z" filter="url(#b)"/></mask></defs><g stroke-width="1.243" clip-path="url(#f)" transform="translate(-283.031 -204.977)scale(.80469)"><path fill="#dfdecf" d="M604 1019h256v384H476v-256c0-70.692 57.308-128 128-128"/><path fill="#521955" d="M860 379v768H476V379z"/><rect width="366.602" height="384" x="749.398" y="1019" fill="#908ca3" ry="0"/><path fill="#dc263c" d="M749.398 379H1116v768H749.398z"/><rect width="384" height="384" x="988" y="1019" fill="#342c40" ry="0"/><path fill="#160b26" d="M1226.602 1019H1372c70.692 0 128 57.308 128 128v256h-273.398z"/><path fill="#ff9b00" d="M988 379h384v768H988z"/><path fill="#ffed47" d="M1226.602 379H1500v768h-273.398z"/><path fill="#474747" d="m1256.425 413.789-536.82.007c-72.127-.002-122.127 22.491-156.015 58.26-33.889 35.768-52.794 87.13-52.794 150.517v536.854c0 63.389 18.905 114.745 52.794 150.512s83.887 58.265 156.014 58.265h536.82c72.111 0 122.103-22.497 155.989-58.265 33.885-35.767 52.79-87.124 52.79-150.512V622.573c0-63.387-18.904-114.748-52.79-150.517-33.886-35.77-83.879-58.265-155.988-58.267zm-904.697-159.06h1272.544v1272.543H351.728z" filter="url(#g)" style="mix-blend-mode:color-burn"/><path fill="#3a313e" d="m1256.425 413.79-536.82.006c-72.127-.002-122.127 22.491-156.015 58.26-33.889 35.768-52.794 87.13-52.794 150.517v536.854c0 63.389 18.905 114.745 52.794 150.512s83.887 58.265 156.014 58.265h536.82c72.111 0 122.103-22.497 155.989-58.265 33.885-35.767 52.79-87.124 52.79-150.512V622.573c0-63.387-18.904-114.748-52.79-150.517-33.886-35.77-83.879-58.265-155.988-58.267zM351.728 254.727h1272.544v1272.544H351.728z"/><rect width="1033.882" height="137.423" x="-718.304" y="698.407" fill="#4a4a4a" stroke="#000" stroke-miterlimit="32" stroke-width="64" filter="url(#h)" opacity=".426" rx="2" style="mix-blend-mode:color-burn" transform="rotate(-64.5 377.724 -151.364)scale(1.24272)"/><rect width="1033.882" height="137.423" x="-718.304" y="698.407" stroke="#000" stroke-miterlimit="32" stroke-width="64" filter="url(#i)" opacity=".202" rx="2" transform="rotate(-64.5 377.724 -151.364)scale(1.24272)"/><path fill="url(#j)" d="M431.262 334.262h1383.737v1113.476H431.262z" style="mix-blend-mode:soft-light"/></g><g transform="rotate(-64.5 101.135 732.018)"><g clip-path="url(#k)"><path fill="url(#l)" d="M0 1024h1033.882v137.423H0z"/><path fill="url(#m)" d="M0 1088.211h1033.882v9H0z"/><path fill="url(#n)" d="M-1033.882 1088.211h40.426v9h-40.426z" filter="url(#o)" style="mix-blend-mode:multiply" transform="matrix(-1.53087 0 0 1 -549.577 0)"/><path fill="url(#p)" d="M0 1088.211h40.426v9H0z" filter="url(#q)" style="mix-blend-mode:multiply"/><path fill="url(#r)" d="M17.892 1091.961h14.67v1.5h-14.67z" filter="url(#s)"/><path fill="url(#t)" d="M101.215 1098.592h63.26v58.114h-5v-50h-53.26v50h-5z" filter="url(#b)"/><path d="M106.215 1103.592h53.26v3.114h-53.26z" filter="url(#u)" mask="url(#v)"/><path fill="url(#w)" d="M164.975 1098.592h1v58.114h-1z" filter="url(#x)" opacity=".561"/><path fill="url(#y)" d="M158.975 1106.706h1v50h-1z" filter="url(#x)" opacity=".561"/><path fill="url(#z)" d="M105.715 1106.706h1v50h-1z" filter="url(#x)" opacity=".561"/><path fill="url(#A)" d="M99.715 1098.592h1v58.114h-1z" filter="url(#x)" opacity=".561"/><path fill="url(#B)" d="M99.38 1113.983h14.67v1H99.38z" filter="url(#C)" opacity=".474" transform="rotate(-90 101.615 1112.7)"/><path fill="url(#D)" d="M99.38 1113.983h14.67v1H99.38z" filter="url(#C)" opacity=".252" transform="rotate(-90 131.111 1083.205)"/><path fill="url(#E)" d="M900.023 1091.961h98.96v1.54h-98.96z" filter="url(#s)"/><rect width="1100" height="8" x="-38" y="1020" fill="url(#F)" rx="1.659"/><rect width="1100" height="8" x="-33.059" y="-1165.423" fill="url(#G)" rx="1.659" transform="scale(1 -1)"/></g><rect width="8.609" height="6.101" x="983.018" y="1089.661" fill="url(#H)" rx=".529"/><rect width="8.609" height="6.101" x="-184.24" y="1089.661" fill="url(#I)" rx=".529" transform="scale(-1 1)"/><g clip-path="url(#J)" transform="translate(0 2.96)"><path fill="#fff8e9" d="M179.935 1004.366h824.75v170.771h-824.75z"/><path fill="#521955" d="M166.759 1004.366h68.496v170.771h-68.496z"/><path fill="#dc263c" d="M224.176 1004.366h41.864v170.771h-41.864z"/><path fill="#ff9b00" d="M257.356 1004.366h27.837v170.771h-27.837z"/><path fill="#ffed47" d="M279.476 1004.366h11.06v170.771h-11.06z"/><path fill="#1a1a17" d="M939.988 1065.862h35.772v-5.175c-4.622-1.306-6.783-4.27-7.084-9.646h-4.773v1.457c0 1.859.553 5.527 1.758 6.883h-25.673zm0 30.496h5.276v-19.895c3.617.2 5.828 2.01 7.234 5.828l1.96 5.376c2.01 5.626 5.426 8.691 10.6 8.691 6.682 0 11.204-4.572 11.204-12.811 0-8.39-4.522-12.761-12.51-12.761v5.978c4.924.503 7.235 2.663 7.235 6.833 0 3.718-2.11 6.28-5.778 6.28-2.914 0-4.974-1.407-6.38-5.124l-1.809-5.024c-2.562-7.034-6.43-9.747-14.067-9.747h-2.965zm-.502 17.383c0 10.2 6.983 14.72 18.388 14.72s18.388-4.52 18.388-14.72c0-10.198-6.983-14.67-18.388-14.67s-18.388 4.472-18.388 14.67m5.275 0c0-5.325 3.92-8.189 13.113-8.189 9.144 0 13.113 2.864 13.113 8.19s-3.97 8.239-13.113 8.239c-9.194 0-13.113-2.914-13.113-8.24" aria-label="120"/><rect width="848.051" height="137.423" x="150.924" y="1024" fill="#292929" rx="14" style="mix-blend-mode:color-dodge"/></g></g></svg>
