<svg xml:space="preserve" xmlns="http://www.w3.org/2000/svg" width="256" height="256" viewBox="0 0 4 4"><defs><clipPath id="a"><rect width="4" height="4" rx=".5"/></clipPath></defs><g clip-path="url(#a)"><path fill="#dfdecf" d="M-1 2h3v3h-3z"/><path fill="#908ca3" d="M1 2h2v3H1z"/><path fill="#342c40" d="M2 2h2v3H2z"/><path fill="#160b26" d="M3 2h2v3H3z"/><path fill="#521955" d="M-1-1h3v4h-3z"/><path fill="#dc263c" d="M1-1h2v4H1z"/><path fill="#ff9b00" d="M2-1h2v4H2z"/><path fill="#ffed47" d="M3-1h2v4H3z"/></g><g paint-order="markers fill stroke"><path d="M0 1.75h4v1.5H0z" fill-opacity=".5"/><g stroke="#fff" fill="none" stroke-miterlimit="32"><path d="m.375 2.125v.75H.75a.125.125 135 0 0 .125-.125v-.21875a.125.125 45 0 0-.125-.125H.375" stroke-width=".25"/><path d="M.375 2.375h.1875a.125.125 135 0 0 .125-.125v-.03125a.125.125 45 0 0-.125-.125H.25" stroke-width=".1875"/><path d="M2 2.125h-.625v.75H2" stroke-width=".25"/><path d="M1.375 2.40625h.375" stroke-width=".1875"/><g stroke-width=".25"><path d="M2.25 2.125H3"/><path d="M2.625 2.125V3"/><path d="M3.375 3v-.625a.25.25 135 0 1 .25-.25.25.25 45 0 1 .25.25V3"/><path d="m3.375 2.625h.5"/></g></g></g></svg>